<?xml version="1.0" encoding="utf-8"?>
<!-- Generator: Adobe Illustrator 27.0.0, SVG Export Plug-In . SVG Version: 6.00 Build 0)  -->
<svg version="1.1" id="Layer_1" xmlns="http://www.w3.org/2000/svg" xmlns:xlink="http://www.w3.org/1999/xlink" x="0px" y="0px"
	 viewBox="0 0 4000 4000" style="enable-background:new 0 0 4000 4000;" xml:space="preserve">
<style type="text/css">
	.st0{fill:#FFFFFF;}
	.st1{fill:url(#SVGID_1_);}
	.st2{fill-rule:evenodd;clip-rule:evenodd;fill:#FFFFFF;}
</style>
<g>
	<g>
		<rect class="st0" width="4000" height="4000"/>
	</g>
	<g>
		<linearGradient id="SVGID_1_" gradientUnits="userSpaceOnUse" x1="2000" y1="3709.3999" x2="2000" y2="-290.6">
			<stop  offset="0" style="stop-color:#27CD44"/>
			<stop  offset="1" style="stop-color:#5FFB7C"/>
		</linearGradient>
		<circle class="st1" cx="2000" cy="2000" r="2000"/>
		<g>
			<g id="WA_Logo_2_">
				<g>
					<path class="st2" d="M2962.07,1062.54c-239.54-239.74-558.1-371.83-897.5-371.97c-699.32,0-1268.47,568.94-1268.75,1268.26
						c-0.09,223.54,58.33,441.75,169.36,634.09l-179.99,657.25l672.58-176.37c185.31,101.04,393.96,154.29,606.31,154.38h0.52
						c0.04,0-0.04,0,0,0c699.24,0,1268.45-569.01,1268.74-1268.33C3333.46,1620.94,3201.62,1302.27,2962.07,1062.54z
						 M2064.59,3013.96h-0.43c-189.22-0.07-374.81-50.89-536.72-146.94l-38.51-22.85l-399.12,104.67l106.53-389.01l-25.08-39.88
						c-105.56-167.85-161.31-361.85-161.23-561.03c0.23-581.25,473.3-1054.13,1054.97-1054.13
						c281.66,0.11,546.44,109.91,745.53,309.17c199.1,199.26,308.68,464.13,308.57,745.81
						C3118.88,2541.05,2645.82,3013.96,2064.59,3013.96z M2643.02,2224.43c-31.7-15.86-187.56-92.53-216.62-103.11
						c-29.06-10.57-50.19-15.86-71.32,15.86c-21.13,31.72-81.89,103.11-100.38,124.26c-18.49,21.15-36.98,23.8-68.69,7.93
						c-31.7-15.86-133.85-49.33-254.94-157.29c-94.24-84.03-157.87-187.82-176.36-219.55s-1.97-48.88,13.9-64.68
						c14.26-14.2,31.7-37.01,47.55-55.52c15.85-18.51,21.13-31.73,31.7-52.88c10.57-21.15,5.29-39.66-2.64-55.52
						c-7.93-15.86-71.32-171.85-97.74-235.3c-25.73-61.8-51.87-53.44-71.33-54.41c-18.47-0.92-39.63-1.11-60.76-1.11
						c-21.13,0-55.48,7.93-84.54,39.66c-29.06,31.73-110.95,108.4-110.95,264.38c0,155.99,113.59,306.68,129.45,327.84
						c15.85,21.15,223.54,341.26,541.55,478.53c75.64,32.65,134.69,52.15,180.72,66.76c75.95,24.11,145.06,20.71,199.68,12.55
						c60.91-9.1,187.56-76.67,213.98-150.7c26.41-74.03,26.41-137.48,18.49-150.7C2695.86,2248.23,2674.72,2240.29,2643.02,2224.43z
						"/>
				</g>
			</g>
		</g>
	</g>
</g>
</svg>
